<mxfile host="Electron" agent="Mozilla/5.0 (X11; Linux x86_64) AppleWebKit/537.36 (KHTML, like Gecko) draw.io/24.7.8 Chrome/128.0.6613.36 Electron/32.0.1 Safari/537.36" version="24.7.8">
  <diagram name="Página-1" id="dD8JN89ZZ7s76X4CXISI">
    <mxGraphModel dx="1411" dy="1138" grid="1" gridSize="10" guides="1" tooltips="1" connect="1" arrows="1" fold="1" page="1" pageScale="1" pageWidth="827" pageHeight="1169" math="0" shadow="0">
      <root>
        <mxCell id="0" />
        <mxCell id="1" parent="0" />
        <mxCell id="pggBbffTXJxngqf3v2AT-1" value="&lt;u&gt;:Encriptador&lt;/u&gt;" style="html=1;whiteSpace=wrap;" vertex="1" parent="1">
          <mxGeometry x="1090" width="110" height="50" as="geometry" />
        </mxCell>
        <mxCell id="pggBbffTXJxngqf3v2AT-3" value="actualizarContraseña(nuevaContraseña,contraseñaContraseña)" style="html=1;verticalAlign=bottom;startArrow=oval;endArrow=block;startSize=8;curved=0;rounded=0;entryX=0;entryY=0;entryDx=0;entryDy=5;" edge="1" parent="1" target="pggBbffTXJxngqf3v2AT-2">
          <mxGeometry relative="1" as="geometry">
            <mxPoint x="820" y="115" as="sourcePoint" />
          </mxGeometry>
        </mxCell>
        <mxCell id="pggBbffTXJxngqf3v2AT-4" value="compararContraseñaActual(ContraseñaActual)" style="html=1;verticalAlign=bottom;startArrow=oval;endArrow=block;startSize=8;curved=0;rounded=0;entryX=0;entryY=0;entryDx=0;entryDy=5;" edge="1" parent="1" target="pggBbffTXJxngqf3v2AT-17" source="pggBbffTXJxngqf3v2AT-2">
          <mxGeometry relative="1" as="geometry">
            <mxPoint x="1180" y="165" as="sourcePoint" />
          </mxGeometry>
        </mxCell>
        <mxCell id="pggBbffTXJxngqf3v2AT-5" value="&lt;u&gt;:Encriptador&lt;/u&gt;" style="html=1;whiteSpace=wrap;" vertex="1" parent="1">
          <mxGeometry x="1370" y="60" width="110" height="50" as="geometry" />
        </mxCell>
        <mxCell id="pggBbffTXJxngqf3v2AT-6" value="" style="html=1;points=[[0,0,0,0,5],[0,1,0,0,-5],[1,0,0,0,5],[1,1,0,0,-5]];perimeter=orthogonalPerimeter;outlineConnect=0;targetShapes=umlLifeline;portConstraint=eastwest;newEdgeStyle={&quot;curved&quot;:0,&quot;rounded&quot;:0};" vertex="1" parent="1">
          <mxGeometry x="1670" y="190" width="10" height="80" as="geometry" />
        </mxCell>
        <mxCell id="pggBbffTXJxngqf3v2AT-7" value="consultarContraseñaActual(CredencialesUsuario)" style="html=1;verticalAlign=bottom;startArrow=oval;endArrow=block;startSize=8;curved=0;rounded=0;entryX=0;entryY=0;entryDx=0;entryDy=5;" edge="1" parent="1" target="pggBbffTXJxngqf3v2AT-6">
          <mxGeometry y="5" relative="1" as="geometry">
            <mxPoint x="1420" y="195" as="sourcePoint" />
            <mxPoint as="offset" />
          </mxGeometry>
        </mxCell>
        <mxCell id="pggBbffTXJxngqf3v2AT-8" value="&lt;u&gt;:ServicioUsuario&lt;/u&gt;" style="html=1;whiteSpace=wrap;" vertex="1" parent="1">
          <mxGeometry x="1600" y="70" width="120" height="50" as="geometry" />
        </mxCell>
        <mxCell id="pggBbffTXJxngqf3v2AT-12" value="" style="endArrow=none;dashed=1;html=1;rounded=0;entryX=0.548;entryY=1.02;entryDx=0;entryDy=0;entryPerimeter=0;" edge="1" parent="1" source="pggBbffTXJxngqf3v2AT-2" target="pggBbffTXJxngqf3v2AT-1">
          <mxGeometry width="50" height="50" relative="1" as="geometry">
            <mxPoint x="1200" y="190" as="sourcePoint" />
            <mxPoint x="1250" y="140" as="targetPoint" />
          </mxGeometry>
        </mxCell>
        <mxCell id="pggBbffTXJxngqf3v2AT-13" value="" style="endArrow=none;dashed=1;html=1;rounded=0;entryX=0.415;entryY=0.98;entryDx=0;entryDy=0;entryPerimeter=0;" edge="1" parent="1" source="pggBbffTXJxngqf3v2AT-17" target="pggBbffTXJxngqf3v2AT-5">
          <mxGeometry width="50" height="50" relative="1" as="geometry">
            <mxPoint x="1130" y="130" as="sourcePoint" />
            <mxPoint x="1130" y="41" as="targetPoint" />
          </mxGeometry>
        </mxCell>
        <mxCell id="pggBbffTXJxngqf3v2AT-14" value="" style="endArrow=none;dashed=1;html=1;rounded=0;entryX=0.585;entryY=0.98;entryDx=0;entryDy=0;entryPerimeter=0;" edge="1" parent="1" source="pggBbffTXJxngqf3v2AT-6" target="pggBbffTXJxngqf3v2AT-8">
          <mxGeometry width="50" height="50" relative="1" as="geometry">
            <mxPoint x="1650" y="190" as="sourcePoint" />
            <mxPoint x="1644.67" y="115" as="targetPoint" />
          </mxGeometry>
        </mxCell>
        <mxCell id="pggBbffTXJxngqf3v2AT-17" value="" style="html=1;points=[[0,0,0,0,5],[0,1,0,0,-5],[1,0,0,0,5],[1,1,0,0,-5]];perimeter=orthogonalPerimeter;outlineConnect=0;targetShapes=umlLifeline;portConstraint=eastwest;newEdgeStyle={&quot;curved&quot;:0,&quot;rounded&quot;:0};" vertex="1" parent="1">
          <mxGeometry x="1410" y="160" width="10" height="80" as="geometry" />
        </mxCell>
        <mxCell id="pggBbffTXJxngqf3v2AT-2" value="" style="html=1;points=[[0,0,0,0,5],[0,1,0,0,-5],[1,0,0,0,5],[1,1,0,0,-5]];perimeter=orthogonalPerimeter;outlineConnect=0;targetShapes=umlLifeline;portConstraint=eastwest;newEdgeStyle={&quot;curved&quot;:0,&quot;rounded&quot;:0};" vertex="1" parent="1">
          <mxGeometry x="1150" y="110" width="10" height="80" as="geometry" />
        </mxCell>
        <mxCell id="pggBbffTXJxngqf3v2AT-23" value="actualizarContraseña(Usuario)" style="html=1;verticalAlign=bottom;startArrow=oval;endArrow=block;startSize=8;curved=0;rounded=0;entryX=0;entryY=0;entryDx=0;entryDy=5;" edge="1" parent="1">
          <mxGeometry y="5" relative="1" as="geometry">
            <mxPoint x="1420" y="238.46" as="sourcePoint" />
            <mxPoint as="offset" />
            <mxPoint x="1670" y="238.46" as="targetPoint" />
          </mxGeometry>
        </mxCell>
      </root>
    </mxGraphModel>
  </diagram>
</mxfile>
